# xmcd
#
# Track frame offsets:
#	150
#	14095
#	24443
#	36766
#	50088
#	62435
#	76258
#	86481
#	99304
#	107327
#	118052
#	138875
#
# Disc length: 1995 seconds
#
# Revision: 1
# Processed by: cddbd v1.4PL0 Copyright (c) Steve Scherf et al.
# Submitted via: EasyCDDAExtractor 5.0.7
#
DISCID=8e07c90c
DTITLE=Dr John - The ear is on strike
DYEAR=1900
DGENRE=Blues
TTITLE0=You're just too square (you ain't nowhere)
TTITLE1=Trader John
TTITLE2=Cat and mouse game
TTITLE3=Helping hand
TTITLE4=Go ahead on
TTITLE5=Loser for you
TTITLE6=One night late
TTITLE7=I pulled the cover offa you two lovers
TTITLE8=New Orleans
TTITLE9=The ear is on strike
TTITLE10=Just like a mirror
TTITLE11=Della (part 1)
EXTD=
EXTT0=
EXTT1=
EXTT2=
EXTT3=
EXTT4=
EXTT5=
EXTT6=
EXTT7=
EXTT8=
EXTT9=
EXTT10=
EXTT11=
PLAYORDER=
